# xmcd
# Track frame offsets:
# 150
# 11637
# 23440
# 37802
# 52977
# 66217
# 79382
# 94185
# 109310
# 129367
# 147782
#
# Disc length: 2197 seconds
# Revision: 0
# Processed by: cddbd v1.4PL0 Copyright (c) Steve Scherf et al.
# Submitted via: VisiTrax 2.9.5.180 - For more info visit www.synapsa.com
#
DISCID=8608930b
DTITLE=Jeff Elliott - Time for time to pay
DYEAR=1900
DGENRE=
TTITLE0=Time for time to pay
TTITLE1=Good ole Texas girl
TTITLE2=Don't mess with exes
TTITLE3=Life ain't like a jukebox
TTITLE4=Rubberneckin'
TTITLE5=Blue Kentucke teardrops
TTITLE6=The morning side of midnight
TTITLE7=Dixie till I die
TTITLE8=By the sea
TTITLE9=It ain't likely
TTITLE10=Let it go
EXTD=
EXTT0=
EXTT1=
EXTT2=
EXTT3=
EXTT4=
EXTT5=
EXTT6=
EXTT7=
EXTT8=
EXTT9=
EXTT10=
PLAYORDER=
